<svg xmlns="http://www.w3.org/2000/svg" width="165.936" height="36" viewBox="0 0 165.936 36"><g fill="#b43473" color="#b43473" transform="translate(0 4) scale(0.3111112)"><svg width="90" height="90" x="0" y="0" viewBox="0 0 90 90"><switch><g><path d="M88.049,45.984c-0.709-12.29-11.282-21.363-23.593-21.51c-5.518-0.066-10.808,1.248-14.571,5.524 c-0.438,0.477-0.803,0.991-1.056,1.556c-1.339,3.013-0.967,3.877-0.967,3.877c0.007-0.006,0.012-0.011,0.019-0.019 c0.015,0.124,4.375-4.442,9.23-5.817c2.003-0.567,4.052-1.028,6.095-1.067c10.693-0.208,18.653,7.974,18.905,18.285 c0.076,3.242-0.71,6.305-2.151,8.992c-6.623,13.181-26.531,25.048-26.531,25.048l-0.027-0.033l-0.031,0.032 c0,0-31.627-17.198-39.999-36.66c-1.573-3.661-2.578-5.919-2.741-11.446c-0.481-16.536,12-29.824,28.081-26.245 C46.188,8.166,49.32,15.28,49.32,15.28s1.003-4.414-1.134-8.348c-1.46-2.688-5.478-6.926-15.09-6.926 c-17.639,0-29.978,14.3-29.978,31.939c0,5.547,1.418,10.761,3.904,15.306c11.437,22.326,46.013,42.607,46.013,42.607 s25.834-15.804,32.908-31.816C87.493,54.777,88.271,49.848,88.049,45.984z"/></g></switch></svg></g><path fill="#454545" fill-rule="nonzero" d="M8.38 20.74L0 20.74L0 0.12L4.13 0.12L4.13 17.23L8.38 17.23L8.38 20.74ZM12.84 20.93Q10.87 20.93 10.14 19.75Q9.41 18.58 9.41 16.25L9.41 16.25L9.41 3.17L13.63 3.17L13.63 15.41Q13.63 15.58 13.63 16.31Q13.63 17.04 13.86 17.34Q14.09 17.64 14.57 17.64L14.57 17.64Q15.22 17.64 15.38 17.10Q15.55 16.56 15.55 15.55L15.55 15.55L15.55 15.41L15.58 3.17L19.75 3.17L19.75 20.74L15.55 20.74L15.55 18.86Q15.12 19.97 14.54 20.45Q13.97 20.93 12.84 20.93L12.84 20.93ZM21.43 20.74L21.43 3.17L25.63 3.17L25.63 5.11Q25.94 4.08 26.72 3.52Q27.50 2.95 28.66 2.95L28.66 2.95L28.66 6.46Q27.77 6.46 26.70 6.71Q25.63 6.96 25.63 7.30L25.63 7.30L25.63 20.74L21.43 20.74ZM36.79 20.74L31.92 20.74L29.11 3.17L33.31 3.17L34.18 12.05L34.32 14.90L34.49 12.02L35.45 3.17L39.65 3.17L36.79 20.74ZM45.67 20.93Q42.96 20.93 41.78 19.44Q40.61 17.95 40.61 15L40.61 15L40.61 7.94Q40.61 5.52 42 4.25Q43.39 2.98 45.89 2.98L45.89 2.98Q50.95 2.98 50.95 7.94L50.95 7.94L50.95 9.22Q50.95 11.14 50.90 12.34L50.90 12.34L44.81 12.34L44.81 15.74Q44.81 16.66 45 17.17Q45.19 17.69 45.82 17.69L45.82 17.69Q46.30 17.69 46.50 17.40Q46.70 17.11 46.74 16.74Q46.78 16.37 46.78 15.65L46.78 15.65L46.78 13.94L50.95 13.94L50.95 14.95Q50.95 18.02 49.76 19.48Q48.58 20.93 45.67 20.93L45.67 20.93ZM44.78 10.25L46.78 10.25L46.78 7.99Q46.78 6.10 45.84 6.10L45.84 6.10Q44.78 6.10 44.78 7.99L44.78 7.99L44.78 10.25ZM64.06 20.74L59.93 20.74L59.93 4.08L57.48 4.08L57.48 0.12L66.50 0.12L66.50 4.08L64.06 4.08L64.06 20.74ZM67.58 20.74L67.58 3.17L71.78 3.17L71.78 5.11Q72.10 4.08 72.88 3.52Q73.66 2.95 74.81 2.95L74.81 2.95L74.81 6.46Q73.92 6.46 72.85 6.71Q71.78 6.96 71.78 7.30L71.78 7.30L71.78 20.74L67.58 20.74ZM79.03 20.93Q76.99 20.93 76.24 19.57Q75.48 18.22 75.48 15.70L75.48 15.70Q75.48 13.63 76.02 12.53Q76.56 11.42 77.52 10.91Q78.48 10.39 80.45 9.77L80.45 9.77L81.60 9.38L81.60 9.34L81.60 7.58Q81.60 6.89 81.32 6.52Q81.05 6.14 80.66 6.14L80.66 6.14Q80.33 6.14 80.08 6.46Q79.82 6.77 79.82 7.30L79.82 7.30L79.82 8.35L75.74 8.35L75.74 7.78Q75.74 5.18 76.96 4.08Q78.17 2.98 80.90 2.98L80.90 2.98Q83.09 2.98 84.46 4.12Q85.82 5.26 85.82 7.34L85.82 7.34L85.82 20.74L81.65 20.74L81.65 18.65Q81.34 19.73 80.65 20.33Q79.97 20.93 79.03 20.93L79.03 20.93ZM80.69 17.66Q81.17 17.66 81.37 17.27Q81.58 16.87 81.58 16.30L81.58 16.30L81.58 11.40Q80.64 11.76 80.20 12.31Q79.75 12.86 79.75 13.85L79.75 13.85L79.75 16.10Q79.75 17.66 80.69 17.66L80.69 17.66ZM92.71 20.93Q89.83 20.93 88.56 19.46Q87.29 18 87.29 14.98L87.29 14.98L87.29 9.55Q87.29 7.27 87.78 5.84Q88.27 4.42 89.44 3.70Q90.60 2.98 92.66 2.98L92.66 2.98Q94.92 2.98 96.34 4.15Q97.75 5.33 97.75 7.44L97.75 7.44L97.75 10.13L93.48 10.13L93.48 7.66Q93.48 6.96 93.29 6.59Q93.10 6.22 92.54 6.22L92.54 6.22Q91.51 6.22 91.51 7.68L91.51 7.68L91.51 16.20Q91.51 16.80 91.76 17.22Q92.02 17.64 92.52 17.64L92.52 17.64Q93.02 17.64 93.28 17.23Q93.53 16.82 93.50 16.18L93.50 16.18L93.48 13.22L97.75 13.22L97.75 16.30Q97.75 18.46 96.35 19.69Q94.94 20.93 92.71 20.93L92.71 20.93ZM103.37 20.74L99.22 20.74L99.22 0L103.37 0L103.37 9.22L105.38 3.17L109.73 3.17L107.09 10.80L110.45 20.74L105.98 20.74L103.37 12.46L103.37 20.74ZM115.92 20.93Q113.21 20.93 112.03 19.44Q110.86 17.95 110.86 15L110.86 15L110.86 7.94Q110.86 5.52 112.25 4.25Q113.64 2.98 116.14 2.98L116.14 2.98Q121.20 2.98 121.20 7.94L121.20 7.94L121.20 9.22Q121.20 11.14 121.15 12.34L121.15 12.34L115.06 12.34L115.06 15.74Q115.06 16.66 115.25 17.17Q115.44 17.69 116.06 17.69L116.06 17.69Q116.54 17.69 116.75 17.40Q116.95 17.11 116.99 16.74Q117.02 16.37 117.02 15.65L117.02 15.65L117.02 13.94L121.20 13.94L121.20 14.95Q121.20 18.02 120.01 19.48Q118.82 20.93 115.92 20.93L115.92 20.93ZM115.03 10.25L117.02 10.25L117.02 7.99Q117.02 6.10 116.09 6.10L116.09 6.10Q115.03 6.10 115.03 7.99L115.03 7.99L115.03 10.25ZM122.71 20.74L122.71 3.17L126.91 3.17L126.91 5.11Q127.22 4.08 128.00 3.52Q128.78 2.95 129.94 2.95L129.94 2.95L129.94 6.46Q129.05 6.46 127.98 6.71Q126.91 6.96 126.91 7.30L126.91 7.30L126.91 20.74L122.71 20.74Z" transform="translate(36, 7.632)"/></svg>