<?xml version="1.0" standalone="no"?>
<!DOCTYPE svg PUBLIC "-//W3C//DTD SVG 20010904//EN"
 "http://www.w3.org/TR/2001/REC-SVG-20010904/DTD/svg10.dtd">
<svg version="1.0" xmlns="http://www.w3.org/2000/svg"
 width="300.000000pt" height="300.000000pt" viewBox="0 0 300.000000 300.000000"
 preserveAspectRatio="xMidYMid meet">
<metadata>
Created by potrace 1.14, written by Peter Selinger 2001-2017
</metadata>
<g transform="translate(0.000000,300.000000) scale(0.100000,-0.100000)"
fill="#000000" stroke="none">
<path d="M1290 2983 c-547 -76 -1015 -457 -1201 -978 -30 -85 -54 -176 -65
-239 -3 -21 -8 -48 -11 -60 -12 -48 -10 -336 3 -417 43 -271 140 -502 299
-709 89 -115 320 -325 385 -348 8 -3 28 -14 44 -25 92 -64 296 -142 466 -178
150 -32 428 -32 580 0 470 99 847 390 1057 816 62 124 113 285 129 400 3 22 9
63 13 92 8 56 6 314 -3 352 -3 12 -8 42 -10 66 -20 163 -115 400 -231 575
-226 338 -601 584 -985 645 -19 3 -46 8 -60 11 -53 11 -319 10 -410 -3z"/>
</g>
</svg>
