<?xml version="1.0" standalone="no"?>
<!DOCTYPE svg PUBLIC "-//W3C//DTD SVG 20010904//EN"
 "http://www.w3.org/TR/2001/REC-SVG-20010904/DTD/svg10.dtd">
<svg version="1.0" xmlns="http://www.w3.org/2000/svg"
 width="300.000000pt" height="300.000000pt" viewBox="0 0 300.000000 300.000000"
 preserveAspectRatio="xMidYMid meet">
<metadata>
Created by potrace 1.14, written by Peter Selinger 2001-2017
</metadata>
<g transform="translate(0.000000,300.000000) scale(0.100000,-0.100000)"
fill="#000000" stroke="none">
<path d="M1290 2983 c-546 -75 -1015 -457 -1200 -976 -68 -191 -85 -300 -84
-527 1 -128 6 -188 23 -268 65 -310 196 -554 412 -772 78 -77 224 -195 259
-208 8 -3 17 -8 20 -11 19 -22 195 -105 295 -139 172 -59 279 -75 485 -75 206
0 314 16 485 75 421 144 760 474 918 893 35 93 63 194 73 270 3 22 9 64 13 92
9 57 7 313 -3 352 -3 12 -8 42 -10 66 -12 99 -75 292 -133 410 -150 300 -406
550 -706 689 -121 56 -267 103 -377 121 -19 3 -46 8 -60 11 -53 11 -319 10
-410 -3z"/>
</g>
</svg>
